<mxfile host="app.diagrams.net" agent="Mozilla/5.0 (Macintosh; Intel Mac OS X 10_15_7) AppleWebKit/605.1.15 (KHTML, like Gecko) Version/17.5 Safari/605.1.15" version="24.7.7">
  <diagram name="Use Case Diagram" id="O8s06yQX7fs1v4JmyNcw">
    <mxGraphModel dx="954" dy="647" grid="1" gridSize="10" guides="1" tooltips="1" connect="1" arrows="1" fold="1" page="1" pageScale="1" pageWidth="827" pageHeight="1169" math="0" shadow="0">
      <root>
        <mxCell id="0" />
        <mxCell id="1" parent="0" />
        <mxCell id="dTtcC1h1Oq8JzrVe_Wi3-1" value="Define Subscription Types" style="ellipse;whiteSpace=wrap;html=1;" vertex="1" parent="1">
          <mxGeometry x="200" y="60" width="160" height="60" as="geometry" />
        </mxCell>
        <mxCell id="dTtcC1h1Oq8JzrVe_Wi3-2" value="Manage Products" style="ellipse;whiteSpace=wrap;html=1;" vertex="1" parent="1">
          <mxGeometry x="200" y="140" width="160" height="60" as="geometry" />
        </mxCell>
        <mxCell id="dTtcC1h1Oq8JzrVe_Wi3-3" value="Deactivate/Activate Subscriptions" style="ellipse;whiteSpace=wrap;html=1;" vertex="1" parent="1">
          <mxGeometry x="200" y="220" width="160" height="60" as="geometry" />
        </mxCell>
        <mxCell id="dTtcC1h1Oq8JzrVe_Wi3-4" value="View Active/Inactive Subscriptions" style="ellipse;whiteSpace=wrap;html=1;" vertex="1" parent="1">
          <mxGeometry x="200" y="300" width="160" height="60" as="geometry" />
        </mxCell>
        <mxCell id="dTtcC1h1Oq8JzrVe_Wi3-5" value="View Order History" style="ellipse;whiteSpace=wrap;html=1;" vertex="1" parent="1">
          <mxGeometry x="200" y="380" width="160" height="60" as="geometry" />
        </mxCell>
        <mxCell id="dTtcC1h1Oq8JzrVe_Wi3-6" value="View Order Dashboard" style="ellipse;whiteSpace=wrap;html=1;" vertex="1" parent="1">
          <mxGeometry x="200" y="460" width="160" height="60" as="geometry" />
        </mxCell>
        <mxCell id="dTtcC1h1Oq8JzrVe_Wi3-7" value="View Daily Delivery List" style="ellipse;whiteSpace=wrap;html=1;" vertex="1" parent="1">
          <mxGeometry x="200" y="540" width="160" height="60" as="geometry" />
        </mxCell>
        <mxCell id="dTtcC1h1Oq8JzrVe_Wi3-8" value="Register" style="ellipse;whiteSpace=wrap;html=1;" vertex="1" parent="1">
          <mxGeometry x="400" y="60" width="160" height="60" as="geometry" />
        </mxCell>
        <mxCell id="dTtcC1h1Oq8JzrVe_Wi3-9" value="Login" style="ellipse;whiteSpace=wrap;html=1;" vertex="1" parent="1">
          <mxGeometry x="400" y="140" width="160" height="60" as="geometry" />
        </mxCell>
        <mxCell id="dTtcC1h1Oq8JzrVe_Wi3-10" style="edgeStyle=orthogonalEdgeStyle;rounded=0;orthogonalLoop=1;jettySize=auto;html=1;exitX=1;exitY=0.5;exitDx=0;exitDy=0;" edge="1" parent="1">
          <mxGeometry relative="1" as="geometry">
            <mxPoint x="490" y="360" as="targetPoint" />
            <mxPoint x="560" y="320" as="sourcePoint" />
          </mxGeometry>
        </mxCell>
        <mxCell id="dTtcC1h1Oq8JzrVe_Wi3-11" value="Browse Products" style="ellipse;whiteSpace=wrap;html=1;" vertex="1" parent="1">
          <mxGeometry x="400" y="220" width="160" height="60" as="geometry" />
        </mxCell>
        <mxCell id="dTtcC1h1Oq8JzrVe_Wi3-12" value="Subscribe to Products" style="ellipse;whiteSpace=wrap;html=1;" vertex="1" parent="1">
          <mxGeometry x="400" y="300" width="160" height="60" as="geometry" />
        </mxCell>
        <mxCell id="dTtcC1h1Oq8JzrVe_Wi3-13" value="Cancel Subscription" style="ellipse;whiteSpace=wrap;html=1;" vertex="1" parent="1">
          <mxGeometry x="400" y="380" width="160" height="60" as="geometry" />
        </mxCell>
        <mxCell id="dTtcC1h1Oq8JzrVe_Wi3-14" value="Place Order" style="ellipse;whiteSpace=wrap;html=1;" vertex="1" parent="1">
          <mxGeometry x="400" y="460" width="160" height="60" as="geometry" />
        </mxCell>
        <mxCell id="dTtcC1h1Oq8JzrVe_Wi3-15" value="View Subscription Details" style="ellipse;whiteSpace=wrap;html=1;" vertex="1" parent="1">
          <mxGeometry x="400" y="540" width="160" height="60" as="geometry" />
        </mxCell>
        <mxCell id="dTtcC1h1Oq8JzrVe_Wi3-16" style="edgeStyle=orthogonalEdgeStyle;rounded=0;orthogonalLoop=1;jettySize=auto;html=1;" edge="1" parent="1" target="dTtcC1h1Oq8JzrVe_Wi3-1">
          <mxGeometry relative="1" as="geometry">
            <mxPoint x="130" y="230" as="sourcePoint" />
          </mxGeometry>
        </mxCell>
        <mxCell id="dTtcC1h1Oq8JzrVe_Wi3-17" style="edgeStyle=orthogonalEdgeStyle;rounded=0;orthogonalLoop=1;jettySize=auto;html=1;" edge="1" parent="1" target="dTtcC1h1Oq8JzrVe_Wi3-2">
          <mxGeometry relative="1" as="geometry">
            <mxPoint x="130" y="230" as="sourcePoint" />
          </mxGeometry>
        </mxCell>
        <mxCell id="dTtcC1h1Oq8JzrVe_Wi3-18" style="edgeStyle=orthogonalEdgeStyle;rounded=0;orthogonalLoop=1;jettySize=auto;html=1;entryX=0;entryY=0.333;entryDx=0;entryDy=0;entryPerimeter=0;" edge="1" parent="1" target="dTtcC1h1Oq8JzrVe_Wi3-4">
          <mxGeometry relative="1" as="geometry">
            <mxPoint x="130" y="230" as="sourcePoint" />
          </mxGeometry>
        </mxCell>
        <mxCell id="dTtcC1h1Oq8JzrVe_Wi3-19" style="edgeStyle=orthogonalEdgeStyle;rounded=0;orthogonalLoop=1;jettySize=auto;html=1;" edge="1" parent="1" target="dTtcC1h1Oq8JzrVe_Wi3-4">
          <mxGeometry relative="1" as="geometry">
            <mxPoint x="130" y="230" as="sourcePoint" />
          </mxGeometry>
        </mxCell>
        <mxCell id="dTtcC1h1Oq8JzrVe_Wi3-20" style="edgeStyle=orthogonalEdgeStyle;rounded=0;orthogonalLoop=1;jettySize=auto;html=1;" edge="1" parent="1" target="dTtcC1h1Oq8JzrVe_Wi3-5">
          <mxGeometry relative="1" as="geometry">
            <mxPoint x="130" y="230" as="sourcePoint" />
          </mxGeometry>
        </mxCell>
        <mxCell id="dTtcC1h1Oq8JzrVe_Wi3-21" style="edgeStyle=orthogonalEdgeStyle;rounded=0;orthogonalLoop=1;jettySize=auto;html=1;" edge="1" parent="1" target="dTtcC1h1Oq8JzrVe_Wi3-6">
          <mxGeometry relative="1" as="geometry">
            <mxPoint x="130" y="230" as="sourcePoint" />
          </mxGeometry>
        </mxCell>
        <mxCell id="dTtcC1h1Oq8JzrVe_Wi3-22" style="edgeStyle=orthogonalEdgeStyle;rounded=0;orthogonalLoop=1;jettySize=auto;html=1;" edge="1" parent="1" target="dTtcC1h1Oq8JzrVe_Wi3-7">
          <mxGeometry relative="1" as="geometry">
            <mxPoint x="130" y="230" as="sourcePoint" />
            <Array as="points">
              <mxPoint x="130" y="231" />
              <mxPoint x="280" y="231" />
            </Array>
          </mxGeometry>
        </mxCell>
        <mxCell id="dTtcC1h1Oq8JzrVe_Wi3-23" style="edgeStyle=orthogonalEdgeStyle;rounded=0;orthogonalLoop=1;jettySize=auto;html=1;" edge="1" parent="1" target="dTtcC1h1Oq8JzrVe_Wi3-8">
          <mxGeometry relative="1" as="geometry">
            <mxPoint x="580" y="230" as="sourcePoint" />
          </mxGeometry>
        </mxCell>
        <mxCell id="dTtcC1h1Oq8JzrVe_Wi3-24" style="edgeStyle=orthogonalEdgeStyle;rounded=0;orthogonalLoop=1;jettySize=auto;html=1;" edge="1" parent="1" target="dTtcC1h1Oq8JzrVe_Wi3-9">
          <mxGeometry relative="1" as="geometry">
            <mxPoint x="580" y="230" as="sourcePoint" />
          </mxGeometry>
        </mxCell>
        <mxCell id="dTtcC1h1Oq8JzrVe_Wi3-25" style="edgeStyle=orthogonalEdgeStyle;rounded=0;orthogonalLoop=1;jettySize=auto;html=1;" edge="1" parent="1" target="dTtcC1h1Oq8JzrVe_Wi3-11">
          <mxGeometry relative="1" as="geometry">
            <mxPoint x="580" y="230" as="sourcePoint" />
          </mxGeometry>
        </mxCell>
        <mxCell id="dTtcC1h1Oq8JzrVe_Wi3-26" value="Admin&lt;div&gt;&lt;br&gt;&lt;/div&gt;" style="shape=umlActor;verticalLabelPosition=bottom;verticalAlign=top;html=1;outlineConnect=0;" vertex="1" parent="1">
          <mxGeometry x="110" y="200" width="30" height="60" as="geometry" />
        </mxCell>
        <mxCell id="dTtcC1h1Oq8JzrVe_Wi3-27" value="Customer" style="shape=umlActor;verticalLabelPosition=bottom;verticalAlign=top;html=1;outlineConnect=0;" vertex="1" parent="1">
          <mxGeometry x="580" y="200" width="30" height="60" as="geometry" />
        </mxCell>
        <mxCell id="dTtcC1h1Oq8JzrVe_Wi3-28" value="" style="endArrow=classic;html=1;rounded=0;" edge="1" parent="1" target="dTtcC1h1Oq8JzrVe_Wi3-13">
          <mxGeometry width="50" height="50" relative="1" as="geometry">
            <mxPoint x="580" y="230" as="sourcePoint" />
            <mxPoint x="440" y="290" as="targetPoint" />
          </mxGeometry>
        </mxCell>
        <mxCell id="dTtcC1h1Oq8JzrVe_Wi3-29" value="" style="endArrow=classic;html=1;rounded=0;entryX=0.969;entryY=0.333;entryDx=0;entryDy=0;entryPerimeter=0;" edge="1" parent="1" target="dTtcC1h1Oq8JzrVe_Wi3-12">
          <mxGeometry width="50" height="50" relative="1" as="geometry">
            <mxPoint x="580" y="230" as="sourcePoint" />
            <mxPoint x="440" y="290" as="targetPoint" />
          </mxGeometry>
        </mxCell>
        <mxCell id="dTtcC1h1Oq8JzrVe_Wi3-30" value="" style="endArrow=classic;html=1;rounded=0;entryX=1;entryY=0.333;entryDx=0;entryDy=0;entryPerimeter=0;" edge="1" parent="1" target="dTtcC1h1Oq8JzrVe_Wi3-15">
          <mxGeometry width="50" height="50" relative="1" as="geometry">
            <mxPoint x="580" y="230" as="sourcePoint" />
            <mxPoint x="440" y="290" as="targetPoint" />
          </mxGeometry>
        </mxCell>
        <mxCell id="dTtcC1h1Oq8JzrVe_Wi3-31" value="" style="endArrow=classic;html=1;rounded=0;" edge="1" parent="1" target="dTtcC1h1Oq8JzrVe_Wi3-14">
          <mxGeometry width="50" height="50" relative="1" as="geometry">
            <mxPoint x="580" y="230" as="sourcePoint" />
            <mxPoint x="506" y="391" as="targetPoint" />
          </mxGeometry>
        </mxCell>
        <mxCell id="dTtcC1h1Oq8JzrVe_Wi3-32" style="edgeStyle=orthogonalEdgeStyle;rounded=0;orthogonalLoop=1;jettySize=auto;html=1;entryX=0;entryY=0.5;entryDx=0;entryDy=0;" edge="1" parent="1" target="dTtcC1h1Oq8JzrVe_Wi3-5">
          <mxGeometry relative="1" as="geometry">
            <mxPoint x="130" y="230" as="sourcePoint" />
            <mxPoint x="210" y="330" as="targetPoint" />
          </mxGeometry>
        </mxCell>
        <mxCell id="dTtcC1h1Oq8JzrVe_Wi3-33" style="edgeStyle=orthogonalEdgeStyle;rounded=0;orthogonalLoop=1;jettySize=auto;html=1;entryX=0;entryY=0.5;entryDx=0;entryDy=0;" edge="1" parent="1" target="dTtcC1h1Oq8JzrVe_Wi3-6">
          <mxGeometry relative="1" as="geometry">
            <mxPoint x="140" y="230" as="sourcePoint" />
            <mxPoint x="220" y="340" as="targetPoint" />
          </mxGeometry>
        </mxCell>
        <mxCell id="dTtcC1h1Oq8JzrVe_Wi3-34" style="edgeStyle=orthogonalEdgeStyle;rounded=0;orthogonalLoop=1;jettySize=auto;html=1;entryX=0;entryY=0.5;entryDx=0;entryDy=0;" edge="1" parent="1" source="dTtcC1h1Oq8JzrVe_Wi3-26" target="dTtcC1h1Oq8JzrVe_Wi3-7">
          <mxGeometry relative="1" as="geometry">
            <mxPoint x="160" y="260" as="sourcePoint" />
            <mxPoint x="230" y="350" as="targetPoint" />
          </mxGeometry>
        </mxCell>
        <mxCell id="dTtcC1h1Oq8JzrVe_Wi3-35" style="edgeStyle=orthogonalEdgeStyle;rounded=0;orthogonalLoop=1;jettySize=auto;html=1;entryX=0;entryY=0.667;entryDx=0;entryDy=0;entryPerimeter=0;" edge="1" parent="1" target="dTtcC1h1Oq8JzrVe_Wi3-1">
          <mxGeometry relative="1" as="geometry">
            <mxPoint x="140" y="230" as="sourcePoint" />
            <mxPoint x="240" y="360" as="targetPoint" />
          </mxGeometry>
        </mxCell>
        <mxCell id="dTtcC1h1Oq8JzrVe_Wi3-36" style="edgeStyle=orthogonalEdgeStyle;rounded=0;orthogonalLoop=1;jettySize=auto;html=1;entryX=0;entryY=0.5;entryDx=0;entryDy=0;" edge="1" parent="1" target="dTtcC1h1Oq8JzrVe_Wi3-2">
          <mxGeometry relative="1" as="geometry">
            <mxPoint x="140" y="230" as="sourcePoint" />
            <mxPoint x="250" y="370" as="targetPoint" />
          </mxGeometry>
        </mxCell>
      </root>
    </mxGraphModel>
  </diagram>
</mxfile>
